HIERARCHY
ROOT Hips
{
	OFFSET 0.000000 0.000000 0.000000
	CHANNELS 6 Xposition Yposition Zposition Zrotation Yrotation Xrotation
	JOINT LHipJoint
	{
		OFFSET 0.000000 0.000000 0.000000
		CHANNELS 3 Zrotation Yrotation Xrotation
		JOINT LeftUpLeg
		{
			OFFSET 1.363060 -1.794630 0.839290
			CHANNELS 3 Zrotation Yrotation Xrotation
			JOINT LeftLeg
			{
				OFFSET 2.448110 -6.726130 0.000000
				CHANNELS 3 Zrotation Yrotation Xrotation
				JOINT LeftFoot
				{
					OFFSET 2.562200 -7.039590 0.000000
					CHANNELS 3 Zrotation Yrotation Xrotation
					JOINT LeftToeBase
					{
						OFFSET 0.157640 -0.433110 2.322550
						CHANNELS 3 Zrotation Yrotation Xrotation
						End Site
						{
							OFFSET 0.000000 0.000000 0.000000
						}
					}
				}
			}
		}
	}
	JOINT RHipJoint
	{
		OFFSET 0.000000 0.000000 0.000000
		CHANNELS 3 Zrotation Yrotation Xrotation
		JOINT RightUpLeg
		{
			OFFSET -1.305520 -1.794630 0.839290
			CHANNELS 3 Zrotation Yrotation Xrotation
			JOINT RightLeg
			{
				OFFSET -2.542530 -6.985550 0.000000
				CHANNELS 3 Zrotation Yrotation Xrotation
				JOINT RightFoot
				{
					OFFSET -2.568260 -7.056230 0.000000
					CHANNELS 3 Zrotation Yrotation Xrotation
					JOINT RightToeBase
					{
						OFFSET -0.164730 -0.452590 2.363150
						CHANNELS 3 Zrotation Yrotation Xrotation
						End Site
						{
							OFFSET 0.000000 0.000000 0.000000
						}
					}
				}
			}
		}
	}
	JOINT LowerBack
	{
		OFFSET 0.000000 0.000000 0.000000
		CHANNELS 3 Zrotation Yrotation Xrotation
		JOINT Spine
		{
			OFFSET 0.028270 2.035590 -0.193380
			CHANNELS 3 Zrotation Yrotation Xrotation
			JOINT Spine1
			{
				OFFSET 0.056720 2.048850 -0.042750
				CHANNELS 3 Zrotation Yrotation Xrotation
				JOINT Neck
				{
					OFFSET 0.000000 0.000000 0.000000
					CHANNELS 3 Zrotation Yrotation Xrotation
					JOINT Neck1
					{
						OFFSET -0.054170 1.746240 0.172020
						CHANNELS 3 Zrotation Yrotation Xrotation
						JOINT Head
						{
							OFFSET 0.104070 1.761360 -0.123970
							CHANNELS 3 Zrotation Yrotation Xrotation
							End Site
							{
								OFFSET 0.000000 0.000000 0.000000
							}
						}
					}
				}
				JOINT LeftShoulder
				{
					OFFSET 0.000000 0.000000 0.000000
					CHANNELS 3 Zrotation Yrotation Xrotation
					JOINT LeftArm
					{
						OFFSET 3.362410 1.200890 -0.311210
						CHANNELS 3 Zrotation Yrotation Xrotation
						JOINT LeftForeArm
						{
							OFFSET 4.983000 -0.000000 -0.000000
							CHANNELS 3 Zrotation Yrotation Xrotation
							JOINT LeftHand
							{
								OFFSET 3.483560 -0.000000 -0.000000
								CHANNELS 3 Zrotation Yrotation Xrotation
								JOINT LeftFingerBase
								{
									OFFSET 0.000000 0.000000 0.000000
									CHANNELS 3 Zrotation Yrotation Xrotation
									JOINT LeftHandIndex1
									{
										OFFSET 0.715260 -0.000000 -0.000000
										CHANNELS 3 Zrotation Yrotation Xrotation
										End Site
										{
											OFFSET 0.000000 0.000000 0.000000
										}
									}
								}
								JOINT LThumb
								{
									OFFSET 0.000000 0.000000 0.000000
									CHANNELS 3 Zrotation Yrotation Xrotation
									End Site
									{
										OFFSET 0.000000 0.000000 0.000000
									}
								}
							}
						}
					}
				}
				JOINT RightShoulder
				{
					OFFSET 0.000000 0.000000 0.000000
					CHANNELS 3 Zrotation Yrotation Xrotation
					JOINT RightArm
					{
						OFFSET -3.136600 1.374050 -0.404650
						CHANNELS 3 Zrotation Yrotation Xrotation
						JOINT RightForeArm
						{
							OFFSET -5.241900 -0.000000 -0.000000
							CHANNELS 3 Zrotation Yrotation Xrotation
							JOINT RightHand
							{
								OFFSET -3.444170 -0.000000 -0.000000
								CHANNELS 3 Zrotation Yrotation Xrotation
								JOINT RightFingerBase
								{
									OFFSET 0.000000 0.000000 0.000000
									CHANNELS 3 Zrotation Yrotation Xrotation
									JOINT RightHandIndex1
									{
										OFFSET -0.622530 -0.000000 -0.000000
										CHANNELS 3 Zrotation Yrotation Xrotation
										End Site
										{
											OFFSET 0.000000 0.000000 0.000000
										}
									}
								}
								JOINT RThumb
								{
									OFFSET 0.000000 0.000000 0.000000
									CHANNELS 3 Zrotation Yrotation Xrotation
									End Site
									{
										OFFSET 0.000000 0.000000 0.000000
									}
								}
							}
						}
					}
				}
			}
		}
	}
}
MOTION
Frames: 12
Frame Time: 0.008333
-1.834735 -6.453748 9.883996 11.030506 11.449366 -8.726968 -0.089640 3.401421 -1.996696 -17.224651 12.340791 48.548080 -6.193175 -3.674985 -15.309701 0.852399 1.565964 -0.953594 -1.855733 0.100901 18.626329 1.773219 0.277668 1.487823 9.011836 1.571121 -23.338507 -11.035357 -9.613669 36.762367 -3.541976 -11.877644 9.069437 4.494176 -3.360433 28.617723 -3.962347 -1.711416 -4.844841 -1.741752 -2.351986 -3.015837 1.500297 -2.409870 2.913089 -0.968874 1.365205 1.950182 -3.222468 -3.035193 -2.155881 -2.155628 0.312511 1.495705 2.499202 0.645527 -0.131613 -5.595296 -10.723674 15.668638 4.231719 -11.078359 -3.021875 0.085462 -1.214463 -7.370305 6.684364 -7.662852 -1.266237 -1.179224 0.000000 0.000000 -30.026983 28.705906 -5.672131 1.542154 -2.019461 -0.850607 22.782747 -6.671837 -14.504991 -5.963790 3.700965 -5.592921 0.318320 -0.257232 10.255239 -3.418125 -11.454020 1.633612 1.592298 0.000000 0.000000 4.006250 -14.687723 -21.727062
-1.835050 -6.470388 9.818026 10.993186 11.640921 -8.633003 -0.054642 3.418937 -1.984634 -17.039993 12.408272 48.859516 -6.289525 -3.722503 -15.723935 0.757717 1.640719 -0.626879 -1.840547 0.292745 18.348131 1.631548 0.244240 1.400506 9.263980 1.805455 -23.815840 -10.609124 -9.533269 35.613194 -3.474472 -11.820653 9.280571 4.604177 -3.178154 28.766718 -3.877371 -1.841719 -4.759616 -1.757863 -2.328485 -3.162265 1.548335 -2.422199 3.123636 -0.967953 1.324347 2.038026 -3.211844 -3.085468 -2.174146 -2.211426 0.301694 1.508878 2.572724 0.684486 -0.119412 -5.447052 -10.677776 15.705918 4.356441 -11.028269 -3.046584 0.085310 -1.232446 -7.419652 6.763937 -7.709224 -1.217480 -1.202152 0.000000 0.000000 -29.799879 28.847496 -5.733395 1.544553 -1.988582 -0.844494 22.788275 -6.691648 -14.628908 -5.883557 3.692861 -5.579635 0.317268 -0.253899 10.460649 -3.515032 -11.374627 1.758102 1.607860 0.000000 0.000000 4.408783 -14.815260 -21.640842
-1.832352 -6.475273 9.766865 10.967306 11.815248 -8.550207 -0.032537 3.429715 -1.974581 -16.888201 12.454305 49.104321 -6.407545 -3.773096 -16.194323 0.653353 1.711012 -0.291214 -1.833135 0.521811 18.144388 1.543813 0.237085 1.288108 9.647763 2.171850 -24.309540 -10.188426 -9.452942 33.963120 -3.456038 -11.596427 9.344808 4.701579 -2.947373 29.184265 -3.742666 -1.934523 -4.554123 -1.752358 -2.291023 -3.261128 1.610135 -2.442260 3.327288 -0.987557 1.271729 2.091856 -3.209441 -3.136585 -2.196074 -2.258733 0.290774 1.518594 2.629163 0.700687 -0.114830 -5.517904 -10.695124 15.549846 4.436888 -11.017951 -3.078298 0.081931 -1.254692 -7.515859 6.823462 -7.783905 -1.185549 -1.226379 0.000000 0.000000 -29.586185 28.938910 -5.803637 1.545365 -1.962293 -0.839064 22.779144 -6.715044 -14.746891 -5.781495 3.681494 -5.563310 0.318016 -0.248761 10.685593 -3.515955 -11.242455 1.981791 1.625011 0.000000 0.000000 4.893297 -14.886133 -21.440289
-1.840082 -6.502446 9.623649 10.920766 11.953174 -8.508076 -0.046720 3.422676 -1.983263 -16.792561 12.460227 49.255600 -6.545853 -3.867259 -16.808804 0.533713 1.730476 -0.017175 -1.839423 0.721674 17.826723 1.364544 0.187615 1.035910 9.731627 2.481676 -24.916037 -9.758646 -9.444074 31.808403 -3.551722 -12.006256 8.601439 4.712986 -2.860928 29.249802 -3.692089 -2.054934 -4.424636 -1.769208 -2.280885 -3.374138 1.661214 -2.462340 3.529138 -1.011940 1.214469 2.136234 -3.210740 -3.192440 -2.225019 -2.309217 0.277907 1.527084 2.677528 0.713080 -0.110159 -5.561101 -10.688948 15.449416 4.528872 -10.998061 -3.105443 0.079504 -1.276577 -7.590581 6.896096 -7.842439 -1.146213 -1.249107 0.000000 0.000000 -29.344894 29.046688 -5.836559 1.549033 -1.936571 -0.833083 22.769527 -6.738401 -14.853599 -5.667970 3.668019 -5.543635 0.319768 -0.243235 10.916799 -3.467112 -11.093062 2.272117 1.643214 0.000000 0.000000 5.454954 -14.896671 -21.141022
-1.870564 -6.533666 9.455820 10.862262 12.069763 -8.463707 -0.063689 3.421679 -1.985564 -16.691360 12.499117 49.414391 -6.685300 -3.940774 -17.424194 0.435097 1.796815 0.395499 -1.838034 0.993244 17.734903 1.260357 0.176547 0.841954 9.816552 2.898062 -25.474495 -9.103962 -9.202927 30.538883 -3.418945 -12.100105 8.834516 4.752294 -2.671013 28.337643 -3.688595 -2.204076 -4.396265 -1.809501 -2.294351 -3.502451 1.676006 -2.481217 3.701165 -1.047867 1.155167 2.176950 -3.210456 -3.242906 -2.251869 -2.342438 0.270083 1.548138 2.723057 0.718627 -0.104577 -5.582652 -10.654332 15.508630 4.647030 -10.988750 -3.131109 0.074842 -1.302827 -7.707047 6.952934 -7.919598 -1.137118 -1.275968 0.000000 0.000000 -29.178997 29.003920 -5.957863 1.538797 -1.921546 -0.828454 22.723911 -6.765290 -14.996077 -5.561103 3.608887 -5.553753 0.319329 -0.238904 11.143002 -3.583432 -11.005031 2.517527 1.658115 0.000000 0.000000 5.812407 -14.999228 -21.055140
-1.880195 -6.518472 9.481422 10.806836 12.186340 -8.364318 -0.041668 3.448892 -1.956071 -16.532476 12.601282 49.668076 -6.794565 -3.960700 -17.950558 0.344215 1.885109 0.789573 -1.855899 1.220953 17.377342 0.968518 0.097952 0.647195 9.737990 3.436222 -25.977346 -8.510509 -9.093692 28.839226 -3.346435 -11.969591 9.605381 4.795879 -2.428775 27.184914 -3.607657 -2.318864 -4.251086 -1.819592 -2.277713 -3.561668 1.711699 -2.500068 3.807684 -1.098021 1.090353 2.206426 -3.203789 -3.311293 -2.310589 -2.381270 0.258277 1.555338 2.739781 0.705733 -0.100120 -5.690617 -10.630720 15.513766 4.725292 -10.976712 -3.152142 0.071775 -1.323257 -7.793934 7.031467 -7.962540 -1.133265 -1.299851 0.000000 0.000000 -28.932333 29.010880 -6.005568 1.536072 -1.895467 -0.820348 22.718332 -6.749025 -15.129117 -5.403449 3.570829 -5.542394 0.320611 -0.235040 11.369652 -3.793406 -10.942988 2.765874 1.672016 0.000000 0.000000 6.109112 -15.115240 -21.070034
-1.903512 -6.503555 9.461695 10.725273 12.263272 -8.289351 -0.044114 3.470885 -1.929940 -16.419838 12.688980 49.854706 -6.910033 -3.977153 -18.509352 0.252015 2.031608 1.272932 -1.874655 1.506068 17.537056 0.857969 0.085476 0.561295 9.579964 3.989526 -26.631678 -7.965965 -8.978509 27.226440 -3.210598 -11.317509 10.910490 4.868934 -2.052994 26.273325 -3.408460 -2.401638 -4.006119 -1.817624 -2.265725 -3.586456 1.738227 -2.519182 3.903696 -1.125761 1.042342 2.264574 -3.181618 -3.361097 -2.342391 -2.390154 0.255474 1.576473 2.752502 0.729464 -0.094679 -5.804037 -10.594170 15.235297 4.774583 -10.976507 -3.172804 0.069554 -1.341236 -7.892944 7.111332 -7.997579 -1.136067 -1.324032 0.000000 0.000000 -28.685469 29.001766 -6.009361 1.532343 -1.870300 -0.813690 22.673414 -6.749439 -15.306282 -5.234796 3.496888 -5.530043 0.322987 -0.231903 11.594430 -4.066658 -10.903591 2.968084 1.681959 0.000000 0.000000 6.354373 -15.234140 -21.079199
-1.933933 -6.483829 9.481847 10.651211 12.350820 -8.208538 -0.047945 3.494050 -1.903102 -16.313408 12.787635 50.056152 -7.025922 -3.989339 -19.100365 0.151811 2.169359 1.750955 -1.903168 1.756765 17.608082 0.682301 0.043477 0.403110 9.145892 4.480662 -27.546902 -7.491352 -8.970205 24.920681 -3.208533 -11.360316 11.149634 4.831072 -1.896590 24.973209 -3.309980 -2.508111 -3.815009 -1.823501 -2.259342 -3.583807 1.770801 -2.532383 4.026791 -1.143735 0.996684 2.317325 -3.159645 -3.417078 -2.387161 -2.406729 0.248908 1.587339 2.742926 0.742006 -0.093411 -6.035806 -10.585867 14.896523 4.817058 -10.982075 -3.193444 0.065752 -1.364613 -8.050879 7.161188 -8.080841 -1.161110 -1.352331 0.000000 0.000000 -28.524866 28.857006 -6.114164 1.507167 -1.864312 -0.814052 22.506096 -6.797813 -15.537498 -5.119923 3.350082 -5.557120 0.320862 -0.233817 11.776486 -4.648489 -11.003187 2.991112 1.686069 0.000000 0.000000 6.382607 -15.451173 -21.262129
-1.968943 -6.429431 9.609717 10.598485 12.446041 -8.098954 -0.038925 3.522642 -1.858470 -16.189289 12.928854 50.323124 -7.125220 -3.948181 -19.623528 0.058303 2.344446 2.385290 -1.916758 2.171664 18.234524 0.681243 0.078150 0.490830 9.176103 5.409635 -27.853434 -6.946299 -8.769325 23.079765 -3.049928 -11.541721 11.743340 4.793099 -1.718024 23.408031 -3.265892 -2.644937 -3.732100 -1.843605 -2.308852 -3.625538 1.760007 -2.529060 4.128144 -1.154689 0.941221 2.361368 -3.143734 -3.484702 -2.450766 -2.424269 0.245221 1.606852 2.735650 0.779237 -0.086072 -6.232168 -10.555706 14.553308 4.841435 -10.992051 -3.214920 0.060269 -1.389928 -8.217342 7.209414 -8.167508 -1.192660 -1.380607 0.000000 0.000000 -28.360380 28.682180 -6.203541 1.471566 -1.860164 -0.813884 22.336182 -6.837803 -15.788743 -4.980176 3.182137 -5.591270 0.319003 -0.235711 11.966546 -5.268688 -11.129980 3.004453 1.688228 0.000000 0.000000 6.337847 -15.687331 -21.434664
-1.994336 -6.357450 9.831901 10.531406 12.479522 -8.002914 -0.052749 3.535783 -1.818108 -16.118830 13.046779 50.469143 -7.236082 -3.967073 -20.376339 -0.052717 2.380442 2.852996 -1.970790 2.403451 18.359432 0.382563 0.018876 0.453422 8.749632 6.309371 -28.356558 -6.444251 -8.631729 21.060591 -2.875772 -11.520441 13.033136 4.805767 -1.396982 22.132990 -3.099761 -2.727095 -3.479589 -1.810124 -2.312171 -3.561841 1.798172 -2.504660 4.234327 -1.108889 0.920500 2.484434 -3.100829 -3.520201 -2.471597 -2.419560 0.256769 1.640806 2.733514 0.828643 -0.074692 -6.299726 -10.473636 14.383696 4.884473 -10.945363 -3.220463 0.059187 -1.401964 -8.256198 7.328331 -8.143553 -1.171080 -1.396564 0.000000 0.000000 -27.932926 28.804050 -5.992534 1.470114 -1.822292 -0.801023 22.344461 -6.781278 -15.939040 -4.677955 3.135341 -5.549878 0.325835 -0.228336 12.245624 -5.338209 -11.017993 3.466828 1.701231 0.000000 0.000000 6.761304 -15.638769 -21.152725
-2.026435 -6.290641 10.028438 10.446908 12.483903 -7.903341 -0.072142 3.550921 -1.773434 -16.052219 13.190221 50.617050 -7.324655 -3.930660 -21.055731 -0.139760 2.447571 3.380306 -2.011508 2.670861 18.532555 0.226489 0.007005 0.473845 8.219332 7.150135 -29.128138 -5.987569 -8.444818 18.832951 -2.706689 -11.581166 14.256044 4.809284 -1.027816 21.081453 -2.893545 -2.818565 -3.248094 -1.785298 -2.339430 -3.490723 1.823656 -2.488479 4.314913 -1.040209 0.894661 2.601216 -3.063457 -3.559123 -2.501534 -2.418122 0.266274 1.670045 2.713655 0.865590 -0.065608 -6.456846 -10.428149 14.136274 4.891699 -10.925914 -3.233151 0.054842 -1.418992 -8.386009 7.396693 -8.208508 -1.192036 -1.419730 0.000000 0.000000 -27.654613 28.716663 -5.935791 1.439391 -1.802910 -0.795462 22.228512 -6.778945 -16.179863 -4.408316 3.020561 -5.534662 0.329173 -0.225411 12.491460 -5.669046 -11.021114 3.753366 1.707487 0.000000 0.000000 6.936830 -15.709650 -21.067997
-2.074121 -6.243045 10.199825 10.353008 12.464682 -7.834560 -0.130205 3.550072 -1.746301 -16.051794 13.297954 50.678001 -7.428991 -3.908860 -21.819984 -0.231920 2.529412 4.003403 -2.037354 2.984142 18.868803 0.120437 0.011395 0.485582 7.683764 8.059437 -29.863789 -5.542243 -8.308539 16.154222 -2.647977 -12.297071 14.486913 4.695379 -0.918031 19.431990 -2.823472 -2.960690 -3.153988 -1.790866 -2.402119 -3.453573 1.818018 -2.484377 4.381203 -0.981401 0.858548 2.719533 -3.025133 -3.596231 -2.531800 -2.416418 0.275891 1.696006 2.682951 0.898799 -0.056569 -6.624482 -10.389968 13.889640 4.903901 -10.897151 -3.242309 0.051661 -1.433874 -8.484095 7.479585 -8.250589 -1.199913 -1.440737 0.000000 0.000000 -27.320633 28.668655 -5.821242 1.413368 -1.782538 -0.789035 22.115894 -6.775012 -16.401293 -4.108364 2.917314 -5.502704 0.334805 -0.219949 12.763851 -5.834583 -10.949878 4.202796 1.717243 0.000000 0.000000 7.361984 -15.622669 -20.702555
